<?xml version="1.0" standalone="no"?>
<!DOCTYPE svg PUBLIC "-//W3C//DTD SVG 20010904//EN"
 "http://www.w3.org/TR/2001/REC-SVG-20010904/DTD/svg10.dtd">
<svg version="1.0" xmlns="http://www.w3.org/2000/svg"
 width="802.000000pt" height="802.000000pt" viewBox="0 0 802.000000 802.000000"
 preserveAspectRatio="xMidYMid meet">
<metadata>
Created by potrace 1.14, written by Peter Selinger 2001-2017
</metadata>
<g transform="translate(0.000000,802.000000) scale(0.100000,-0.100000)"
fill="#000000" stroke="none">
<path d="M3970 7425 c-18 -19 -26 -22 -37 -14 -9 8 -13 8 -13 0 0 -7 -8 -8
-25 -1 -14 5 -25 6 -25 1 0 -12 -33 -9 -42 4 -5 6 -8 5 -8 -4 0 -11 -3 -11
-15 -1 -15 12 -20 5 -16 -25 1 -5 -5 -1 -14 9 -13 17 -15 18 -21 2 -5 -12 -10
-14 -19 -6 -9 8 -15 8 -20 0 -3 -6 -10 -8 -15 -5 -5 3 -12 1 -15 -5 -4 -7 -12
-7 -18 -2 -15 10 -27 10 -46 -2 -11 -7 -13 -5 -7 9 5 15 4 16 -9 5 -8 -7 -15
-9 -15 -5 0 4 -8 1 -17 -6 -10 -9 -14 -9 -10 -2 6 9 -3 11 -33 8 -30 -3 -39
-1 -34 8 4 7 -6 1 -22 -13 -15 -14 -22 -17 -15 -7 17 21 8 22 -13 1 -12 -12
-16 -12 -16 -2 -1 8 -6 5 -16 -7 -9 -12 -18 -16 -22 -10 -10 15 -35 18 -26 4
5 -9 2 -10 -10 -6 -9 4 -14 3 -11 -2 3 -5 1 -12 -5 -16 -5 -3 -10 1 -10 10 0
9 -5 13 -10 10 -6 -4 -8 -10 -6 -13 2 -4 -12 -8 -32 -10 -53 -3 -68 -6 -85
-20 -12 -10 -17 -10 -23 -1 -5 8 -13 4 -26 -12 -14 -19 -17 -20 -11 -5 6 19 4
18 -26 -3 -27 -20 -34 -21 -48 -9 -12 9 -15 9 -9 1 4 -8 1 -13 -8 -13 -8 0
-20 -9 -26 -20 -11 -21 -30 -27 -30 -9 0 5 4 7 10 4 6 -4 7 1 3 11 -5 15 -7
14 -17 -2 -6 -11 -11 -22 -12 -26 -1 -5 -2 -11 -3 -15 -1 -5 -6 -1 -11 7 -9
13 -10 13 -10 0 0 -13 -1 -13 -10 0 -5 8 -10 10 -10 4 0 -7 -9 -14 -21 -17
-12 -3 -18 -10 -14 -16 3 -7 0 -8 -9 -5 -9 3 -13 11 -10 18 3 6 -2 2 -10 -8
-9 -11 -16 -16 -16 -11 0 5 -7 0 -15 -11 -8 -10 -15 -16 -15 -12 0 4 -12 3
-26 -2 -19 -8 -23 -7 -18 3 6 9 5 9 -8 0 -8 -7 -18 -10 -21 -6 -4 3 -7 -2 -7
-13 0 -10 -4 -15 -8 -9 -9 13 -35 18 -27 5 4 -6 -5 -10 -20 -10 -18 0 -24 -4
-19 -12 4 -7 4 -10 -1 -6 -4 4 -15 2 -23 -5 -10 -8 -13 -8 -9 -1 4 7 1 14 -7
17 -10 4 -12 0 -8 -15 4 -18 2 -20 -16 -16 -22 6 -47 -13 -35 -26 4 -4 -1 -4
-11 0 -12 5 -17 4 -13 -3 3 -5 0 -10 -8 -10 -8 0 -12 4 -9 9 10 16 -6 8 -28
-14 -21 -21 -22 -21 -29 -2 -6 15 -8 15 -8 3 -1 -23 -24 -39 -59 -42 -23 -1
-29 -6 -26 -20 1 -10 -1 -15 -7 -12 -5 4 -9 1 -9 -5 0 -6 -4 -9 -9 -6 -11 7
-63 -19 -54 -27 3 -4 -4 -7 -16 -7 -14 0 -20 4 -15 12 4 6 3 8 -4 4 -6 -3 -9
-15 -7 -25 4 -19 -17 -23 -32 -6 -4 4 -2 5 6 0 10 -5 12 -4 7 4 -4 6 -12 9
-17 5 -5 -3 -7 -10 -4 -15 4 -5 2 -9 -4 -9 -6 0 -8 -6 -5 -13 3 -9 -6 -13 -35
-12 -22 1 -38 -1 -36 -3 2 -3 0 -13 -6 -24 -7 -13 -16 -17 -30 -13 -14 5 -17
2 -13 -8 3 -8 0 -18 -7 -23 -7 -4 -10 -3 -6 3 4 6 -3 8 -18 5 -14 -2 -25 -8
-25 -13 0 -5 8 -6 18 -3 16 5 16 5 -1 -6 -9 -6 -21 -9 -25 -6 -4 2 -14 0 -22
-6 -12 -8 -12 -9 3 -4 9 3 17 1 17 -5 0 -6 5 -7 12 -3 6 4 8 3 4 -4 -3 -6 -15
-9 -26 -7 -14 3 -20 -2 -20 -15 0 -10 -5 -22 -12 -26 -6 -4 -8 -3 -4 4 3 6 2
14 -4 17 -6 4 -10 3 -9 -2 4 -21 -2 -33 -16 -33 -8 0 -15 -5 -15 -11 0 -5 5
-7 10 -4 6 3 10 2 10 -4 0 -5 -9 -9 -19 -8 -11 0 -17 6 -15 12 3 5 -1 2 -9 -7
-8 -10 -17 -15 -20 -11 -4 3 -7 -1 -7 -11 0 -10 5 -14 12 -10 6 4 8 3 5 -3 -4
-6 -21 -9 -39 -7 -30 4 -31 3 -12 -11 16 -13 16 -14 1 -9 -13 5 -16 2 -11 -12
6 -17 5 -17 -10 1 -10 11 -15 14 -11 8 4 -8 0 -13 -9 -13 -14 0 -20 -11 -17
-32 0 -4 -6 -5 -15 -1 -9 3 -14 0 -12 -8 2 -8 -4 -13 -13 -11 -22 3 -43 -24
-35 -44 5 -14 4 -15 -9 -4 -13 10 -15 9 -15 -8 0 -12 -5 -24 -12 -28 -7 -4 -8
-3 -4 4 4 7 2 12 -5 12 -6 0 -9 -8 -7 -18 4 -13 0 -18 -15 -18 -10 1 -24 -8
-31 -19 -6 -11 -15 -23 -20 -26 -5 -4 -5 -12 -2 -18 5 -7 2 -10 -6 -9 -7 2
-12 -5 -12 -15 2 -14 -1 -15 -13 -6 -11 10 -14 10 -11 -2 2 -8 -3 -13 -10 -11
-6 1 -11 -1 -11 -5 3 -21 -2 -33 -15 -33 -8 0 -17 -8 -21 -17 -5 -15 -4 -16 6
-5 7 6 17 12 22 12 5 0 -2 -9 -17 -21 -14 -11 -31 -17 -37 -13 -7 4 -7 -1 1
-16 10 -18 9 -21 -1 -15 -9 6 -11 2 -7 -13 4 -12 2 -19 -3 -16 -5 3 -12 -2
-15 -11 -5 -13 -9 -13 -23 -3 -9 7 -13 8 -8 3 4 -4 -5 -17 -20 -27 -16 -10
-23 -18 -17 -18 5 0 15 5 21 11 8 8 13 8 18 0 4 -7 1 -10 -7 -9 -7 2 -12 -3
-10 -10 1 -6 -1 -11 -5 -11 -22 4 -30 -3 -29 -23 1 -14 -4 -22 -11 -20 -7 1
-13 -5 -13 -13 0 -8 -4 -16 -10 -16 -5 -1 -14 -2 -20 -3 -12 -1 -14 -15 -4
-24 4 -4 4 -1 -1 7 -6 10 -4 12 4 7 9 -6 9 -12 -1 -24 -43 -56 -57 -70 -64
-64 -5 4 -3 0 4 -9 10 -13 7 -20 -14 -40 -25 -23 -26 -23 -15 -2 16 31 13 43
-4 13 -9 -16 -10 -29 -4 -37 7 -7 6 -14 -2 -19 -8 -5 -10 -3 -5 7 4 8 1 6 -7
-3 -8 -10 -18 -14 -22 -10 -4 4 -2 -4 5 -18 10 -21 10 -23 -1 -12 -7 6 -17 12
-22 12 -4 0 -5 -6 0 -12 11 -18 13 -39 3 -33 -5 3 -12 -1 -17 -8 -4 -8 -15
-17 -23 -20 -12 -4 -11 -6 3 -6 10 -1 15 -6 12 -11 -4 -6 -10 -8 -15 -5 -4 3
-11 -7 -14 -20 -4 -15 -11 -23 -17 -19 -7 4 -6 -2 1 -16 10 -18 9 -21 -1 -15
-9 6 -10 3 -6 -9 6 -14 3 -17 -9 -12 -14 5 -15 4 -4 -9 11 -13 10 -15 -1 -10
-16 6 -45 -48 -35 -64 4 -5 1 -13 -5 -17 -8 -5 -9 -3 -4 7 7 12 5 12 -6 1 -12
-11 -12 -14 1 -22 11 -7 11 -10 2 -10 -7 0 -10 -4 -7 -10 3 -5 1 -10 -5 -10
-6 0 -9 -4 -6 -9 3 -5 -1 -12 -10 -15 -14 -5 -14 -9 -3 -23 13 -15 11 -16 -10
-10 -18 4 -21 3 -12 -6 15 -15 14 -30 -1 -21 -9 5 -9 3 1 -9 11 -14 11 -18 -3
-23 -9 -3 -14 -10 -11 -14 3 -4 -2 -11 -11 -14 -9 -3 -14 -13 -11 -21 4 -10 1
-12 -10 -8 -11 4 -14 2 -11 -8 3 -8 -2 -20 -11 -26 -14 -11 -14 -14 -1 -23 11
-7 11 -10 2 -10 -10 0 -10 -3 0 -14 8 -9 17 -11 22 -5 6 5 14 9 20 9 5 0 1 -8
-10 -19 -11 -11 -22 -14 -25 -8 -10 14 -42 -1 -36 -16 3 -8 -1 -14 -9 -14 -7
0 -11 4 -8 8 2 4 0 11 -6 14 -6 4 -9 1 -8 -7 2 -7 -5 -12 -14 -12 -10 1 -17
-1 -16 -5 2 -18 -3 -31 -13 -31 -5 0 -7 5 -3 12 4 6 3 8 -3 5 -6 -4 -9 -18 -8
-32 2 -14 -1 -23 -6 -19 -5 3 -7 10 -4 15 10 16 -5 10 -27 -11 -17 -16 -24
-17 -37 -7 -12 10 -13 9 -7 -1 6 -10 -3 -12 -38 -9 -28 3 -52 0 -63 -8 -13 -9
-22 -10 -30 -3 -9 7 -15 6 -19 -6 -5 -13 -9 -14 -20 -5 -11 9 -14 9 -14 0 0
-7 -4 -9 -10 -6 -5 3 -10 1 -10 -6 0 -7 -7 -4 -15 7 -15 18 -15 18 -8 0 4 -13
3 -17 -5 -12 -7 4 -12 2 -12 -6 0 -11 -2 -10 -9 0 -6 11 -10 10 -15 -3 -4 -12
-10 -14 -19 -8 -13 10 -60 -30 -48 -43 3 -4 0 -4 -8 1 -11 6 -9 11 9 25 17 13
20 19 10 25 -9 5 -11 4 -6 -3 4 -7 1 -12 -8 -12 -9 0 -16 -5 -16 -11 0 -5 -4
-7 -10 -4 -5 3 -7 0 -4 -8 3 -8 0 -18 -7 -23 -8 -5 -10 -3 -4 7 8 12 6 12 -8
0 -9 -7 -17 -10 -17 -6 0 4 -7 2 -15 -5 -8 -7 -15 -17 -15 -23 0 -6 7 -2 15 9
8 10 15 14 15 8 0 -6 -6 -17 -14 -23 -11 -10 -17 -8 -26 6 -9 16 -10 15 -4 -6
4 -16 3 -21 -5 -17 -7 5 -8 1 -4 -11 6 -15 4 -16 -9 -6 -13 11 -15 9 -13 -17
1 -19 -3 -30 -11 -30 -7 0 -16 -5 -20 -12 -4 -7 -3 -8 4 -4 7 4 12 2 12 -3 0
-6 -6 -11 -12 -11 -9 0 -8 -4 2 -10 9 -6 11 -10 3 -10 -7 0 -10 -7 -6 -17 4
-11 3 -14 -5 -9 -9 5 -9 0 -2 -20 10 -25 9 -26 -7 -13 -10 7 -15 9 -11 5 4 -5
2 -16 -5 -24 -9 -13 -9 -14 1 -8 18 11 15 -5 -5 -21 -10 -8 -12 -12 -5 -8 6 3
12 1 12 -4 0 -6 -5 -11 -11 -11 -7 0 -10 -13 -7 -34 2 -19 0 -32 -4 -30 -4 3
-9 2 -9 -3 -1 -4 -3 -21 -5 -36 -1 -16 -8 -35 -15 -43 -9 -11 -9 -14 1 -14 10
0 10 -3 0 -15 -7 -8 -9 -15 -4 -16 5 0 0 -4 -11 -9 l-20 -9 20 -1 c19 -1 19
-1 2 -11 -13 -8 -17 -18 -13 -34 4 -17 1 -27 -11 -34 -14 -8 -15 -10 -3 -11
12 0 12 -2 2 -9 -16 -10 -22 -81 -7 -81 5 0 3 -5 -5 -10 -13 -9 -13 -11 0 -20
8 -5 11 -10 5 -10 -5 0 -11 -11 -11 -25 -1 -14 2 -25 8 -25 5 0 6 5 2 12 -5 7
-3 8 6 3 10 -6 10 -10 -3 -20 -12 -9 -14 -14 -5 -23 7 -7 8 -12 2 -12 -6 0 -9
-13 -6 -30 2 -16 9 -30 16 -30 6 0 4 -5 -4 -10 -11 -7 -11 -10 -2 -10 7 0 10
-4 7 -10 -3 -6 4 -10 17 -11 13 0 17 -3 11 -6 -7 -2 -13 -9 -13 -14 0 -6 6 -7
13 -3 8 6 8 3 -1 -9 -12 -14 -11 -16 7 -12 14 2 18 -1 14 -11 -3 -7 -10 -11
-16 -7 -6 3 -7 1 -3 -6 6 -9 11 -9 23 1 14 11 15 10 9 -9 -6 -18 -3 -21 19
-19 20 3 23 1 14 -10 -11 -14 -1 -20 25 -15 5 1 3 -6 -5 -15 -9 -12 -9 -15 -1
-10 6 4 12 2 12 -3 0 -6 9 -11 21 -11 19 0 19 -1 5 -16 -20 -19 -21 -31 -2
-15 11 10 16 8 21 -9 5 -17 10 -19 21 -9 14 11 20 1 15 -25 -1 -5 6 -3 15 5
16 12 17 12 12 -3 -5 -12 -1 -16 17 -13 14 1 22 -2 19 -6 -3 -5 2 -9 10 -9 9
0 16 -5 16 -10 0 -6 6 -10 13 -9 6 1 23 1 37 0 20 -1 22 -3 10 -11 -12 -8 -10
-10 9 -10 13 0 21 -3 18 -7 -4 -3 1 -15 10 -26 18 -20 18 -20 -12 -2 l-30 19
20 -21 c12 -11 27 -23 35 -26 13 -5 13 -6 1 -6 -11 -1 -10 -5 5 -17 10 -8 13
-12 6 -9 -20 10 4 -34 31 -57 14 -12 16 -18 6 -18 -8 0 -4 -6 9 -16 24 -17 29
-49 10 -58 -7 -3 -4 -4 7 -1 11 2 27 0 35 -6 13 -10 13 -10 -1 -6 -9 3 -16 -1
-16 -9 0 -7 4 -11 9 -8 4 3 24 1 43 -5 19 -5 35 -6 35 -1 0 4 8 7 18 5 9 -1
24 1 32 5 13 7 15 -10 14 -131 -1 -97 2 -139 10 -139 6 0 4 -5 -4 -10 -8 -5
-10 -10 -4 -10 7 0 14 -20 16 -45 2 -25 -1 -45 -5 -45 -5 0 -5 -6 -1 -12 5 -7
8 -36 7 -65 0 -30 4 -56 8 -59 5 -3 4 -14 -1 -25 -8 -14 -7 -19 1 -19 8 0 7
-5 -2 -17 -7 -10 -10 -15 -5 -11 11 10 35 -14 29 -30 -3 -7 1 -20 8 -29 10
-12 10 -15 2 -9 -7 4 -13 2 -13 -3 0 -6 8 -11 18 -11 13 0 14 -2 3 -9 -11 -7
-11 -9 0 -14 9 -4 10 -6 2 -6 -7 -1 -10 -8 -7 -16 4 -8 11 -12 18 -8 7 5 7 2
-1 -8 -10 -12 -9 -21 2 -42 8 -15 10 -25 5 -22 -6 4 -10 1 -10 -4 0 -6 6 -11
13 -11 8 0 7 -4 -3 -10 -13 -8 -13 -10 1 -10 11 0 15 -8 14 -25 -2 -14 1 -25
6 -25 6 0 7 -5 3 -12 -5 -7 -2 -9 8 -6 8 4 15 0 15 -8 0 -7 -5 -11 -10 -7 -15
9 4 -41 20 -54 9 -7 20 -10 26 -6 6 3 7 1 3 -5 -3 -6 -16 -9 -27 -7 -17 3 -19
2 -9 -10 7 -8 15 -14 18 -13 18 2 30 -3 35 -15 3 -8 -1 -14 -9 -14 -7 0 -11 4
-8 8 2 4 0 10 -5 14 -6 3 -9 -7 -8 -24 2 -22 5 -27 15 -19 7 6 15 8 19 4 3 -3
1 -6 -5 -6 -7 0 -12 -11 -12 -25 0 -17 6 -25 18 -25 14 0 15 -2 2 -10 -8 -5
-10 -10 -3 -10 6 0 10 -8 9 -17 -3 -22 22 -73 37 -74 7 0 3 -4 -8 -9 -11 -5
-14 -9 -7 -9 6 -1 12 -8 12 -16 0 -8 5 -15 11 -15 5 0 7 -4 4 -10 -3 -5 -3
-10 2 -10 4 0 9 -12 10 -27 0 -15 6 -29 12 -31 5 -2 7 -10 4 -18 -3 -8 -1 -14
3 -14 5 0 10 -12 11 -26 0 -15 5 -29 10 -33 4 -3 9 -13 11 -21 6 -31 26 -61
39 -56 7 3 12 2 11 -2 -3 -12 13 -52 21 -52 4 0 12 5 19 12 9 9 15 9 25 -1 10
-10 8 -11 -7 -5 -15 6 -17 4 -11 -6 5 -9 4 -11 -3 -6 -7 4 -12 1 -12 -9 0 -9
4 -14 9 -11 5 3 12 -2 16 -12 6 -16 7 -16 21 2 8 11 14 15 14 9 0 -14 -25 -34
-33 -26 -4 3 -7 2 -7 -4 0 -16 28 -24 34 -10 3 7 3 -1 1 -18 -5 -32 20 -80 35
-70 6 4 10 -3 10 -14 0 -12 7 -21 15 -21 9 0 12 -6 8 -17 -3 -10 -3 -15 2 -11
9 8 35 -15 35 -31 0 -6 5 -11 11 -11 5 0 8 -4 5 -9 -3 -5 4 -11 15 -14 12 -3
18 -10 15 -15 -3 -5 2 -16 11 -23 14 -12 16 -12 8 0 -5 10 -4 12 3 7 7 -4 12
-14 12 -22 0 -11 6 -13 19 -9 11 3 22 1 26 -4 3 -7 0 -8 -9 -5 -9 3 -16 1 -16
-4 0 -17 20 -25 34 -13 14 11 26 5 26 -13 0 -6 -5 -4 -10 4 -5 8 -10 13 -11
10 0 -3 -2 -13 -4 -22 -2 -10 8 -26 21 -37 13 -10 24 -26 24 -35 0 -9 5 -16
11 -16 6 0 9 -7 6 -14 -4 -11 -1 -13 10 -9 12 5 15 2 10 -10 -3 -9 -1 -19 5
-23 7 -4 8 -3 4 4 -4 7 -2 12 3 12 6 0 11 -4 11 -10 0 -17 4 -24 25 -46 11
-12 23 -19 28 -17 4 2 7 -3 7 -11 0 -9 5 -16 11 -16 5 0 7 -4 4 -10 -3 -5 3
-10 14 -10 12 0 20 -3 20 -7 -3 -21 2 -33 16 -33 8 0 15 -7 15 -15 0 -8 4 -15
10 -15 5 0 9 5 7 12 -4 20 -21 36 -31 30 -5 -3 -7 2 -3 11 4 10 -3 23 -21 37
-21 17 -22 19 -4 10 12 -6 29 -22 38 -35 9 -14 22 -21 30 -18 8 3 14 0 14 -7
0 -6 6 -8 13 -4 6 4 9 4 5 -1 -10 -10 11 -37 23 -29 5 3 6 -3 2 -12 -4 -10 -2
-15 4 -11 5 3 10 -1 10 -10 0 -12 -7 -9 -24 11 -12 15 -23 23 -24 19 0 -4 -4
1 -8 11 -4 12 -10 15 -14 9 -8 -12 25 -53 42 -53 6 0 11 -4 11 -10 0 -5 4 -10
10 -10 5 0 24 -15 43 -33 45 -43 77 -68 77 -60 0 3 10 -6 23 -20 12 -15 28
-27 35 -27 7 0 10 -4 7 -10 -3 -5 -2 -10 4 -10 6 0 28 -18 50 -39 22 -21 42
-36 45 -33 3 3 6 -2 6 -11 0 -9 6 -17 14 -17 8 0 17 -8 21 -19 3 -10 23 -26
45 -36 22 -10 40 -22 40 -28 0 -5 6 -7 14 -4 8 3 16 3 18 -1 3 -7 126 -66 200
-95 20 -9 39 -13 42 -9 3 3 6 0 6 -7 0 -7 5 -9 10 -6 6 3 10 1 10 -4 0 -6 3
-10 8 -9 4 2 36 -8 72 -20 66 -24 79 -28 92 -31 4 -1 23 -8 42 -16 18 -8 36
-11 40 -8 3 4 6 1 6 -5 0 -6 9 -9 20 -7 11 2 20 -1 20 -7 0 -5 7 -8 15 -5 8 4
17 2 19 -2 5 -7 53 -22 81 -25 6 -1 16 -5 23 -9 6 -5 12 -6 12 -3 0 3 12 1 28
-5 25 -10 68 -19 100 -21 6 -1 12 -4 12 -7 0 -6 19 -9 80 -14 14 -1 27 -5 30
-9 3 -4 22 -8 43 -10 20 -1 37 -5 37 -8 0 -3 10 -5 23 -6 50 -2 118 -12 123
-17 3 -3 12 -3 20 0 8 3 14 -1 14 -8 0 -11 3 -11 10 1 5 8 10 11 10 5 0 -5 17
-10 37 -9 21 0 42 -2 48 -5 9 -5 28 -6 135 -11 30 -2 63 -7 72 -11 10 -6 19
-5 23 1 4 6 12 7 18 3 13 -8 447 -11 447 -3 0 3 39 6 86 7 51 2 93 8 102 15
13 11 14 11 7 -1 -6 -11 -4 -13 11 -7 10 4 42 10 69 12 28 2 60 6 72 9 24 6
118 18 146 19 9 0 17 3 17 6 0 3 12 7 28 8 15 1 38 5 52 8 14 3 39 8 55 11 45
8 60 11 60 13 0 1 9 3 20 5 76 14 91 18 100 23 10 7 12 7 55 13 14 2 28 7 31
11 3 5 17 9 32 10 15 1 27 6 27 10 0 4 9 5 20 3 11 -2 22 1 25 6 4 5 11 7 16
4 5 -4 9 -2 9 3 0 6 7 13 16 16 8 3 12 2 9 -3 -3 -6 22 1 55 15 33 13 66 24
75 24 8 0 15 4 15 10 0 5 6 7 14 4 8 -3 17 0 21 5 3 6 11 9 16 6 5 -4 9 -1 9
4 0 6 7 11 14 11 18 0 100 43 119 62 8 7 41 36 73 63 32 28 70 61 84 75 37 36
109 90 120 90 6 0 9 5 7 11 -1 6 7 13 18 15 11 1 25 10 31 18 6 9 15 16 20 16
5 0 16 9 24 20 8 11 20 20 26 20 7 0 14 7 18 15 3 8 12 15 21 15 8 0 15 4 15
9 0 5 15 19 33 30 18 11 43 29 56 41 16 13 28 17 36 10 13 -11 55 15 110 67 7
7 15 9 19 6 3 -4 6 -1 6 5 0 7 4 12 10 12 10 0 38 21 76 58 13 13 24 19 24 15
0 -4 10 7 21 24 12 18 25 30 30 27 5 -3 6 2 3 10 -4 10 -1 16 9 16 18 0 30 27
17 35 -6 4 -10 -1 -10 -9 0 -15 -12 -21 -33 -17 -5 1 -5 -4 -1 -10 3 -6 0 -15
-7 -20 -8 -4 -14 -13 -14 -19 0 -5 -4 -9 -8 -7 -5 1 -13 -6 -18 -16 -6 -9 -14
-15 -19 -12 -5 3 -11 -4 -15 -14 -3 -11 -15 -23 -26 -26 -10 -4 -19 -11 -19
-17 0 -6 -3 -9 -6 -5 -5 5 -27 -10 -60 -41 -8 -7 -14 -10 -14 -5 0 4 -5 1 -10
-7 -7 -11 -10 -12 -10 -2 0 7 7 20 15 28 8 9 15 13 15 9 0 -3 11 4 24 17 13
13 37 35 54 49 17 15 28 29 25 33 -4 3 0 6 8 6 16 0 125 100 122 111 -2 4 8 6
22 3 13 -2 27 1 31 7 4 7 3 9 -4 5 -6 -3 -14 -2 -17 4 -4 6 -3 10 2 9 4 -1 17
-1 28 0 17 1 18 3 5 11 -13 8 -12 10 4 10 11 0 17 3 13 6 -3 3 4 16 16 29 12
12 38 42 57 66 19 24 42 50 50 59 8 9 21 28 29 43 8 15 18 27 23 27 4 0 8 7 8
15 0 8 5 15 10 15 6 0 10 7 10 15 0 8 3 15 8 15 4 0 22 23 41 50 19 28 39 50
44 50 6 0 7 3 4 6 -4 4 5 21 18 38 36 44 40 50 43 66 2 8 10 22 18 31 8 8 14
19 14 23 0 4 21 44 47 89 25 45 46 88 46 95 0 6 4 12 8 12 6 0 19 29 23 53 0
4 6 11 11 15 6 4 10 18 10 32 -1 28 14 71 30 83 6 4 6 10 -3 15 -10 7 -10 11
2 21 8 7 13 21 11 31 -2 11 1 22 6 25 5 4 7 11 4 16 -4 5 -2 9 4 9 6 0 8 6 5
13 -2 7 2 27 11 43 8 16 15 35 15 42 0 6 5 12 11 12 5 0 7 5 4 10 -3 6 1 13 9
16 9 3 14 10 11 14 -3 5 2 16 11 24 8 9 13 16 10 16 -3 0 17 23 44 50 27 28
54 50 60 50 5 0 10 8 10 18 0 13 2 14 9 4 6 -11 10 -10 16 5 5 10 9 21 9 25 1
3 5 10 10 15 5 5 6 3 2 -4 -4 -7 -2 -13 3 -13 6 0 11 7 11 16 0 8 5 12 10 9 6
-4 17 -1 25 5 11 9 15 9 15 1 0 -9 5 -9 21 -1 11 7 33 9 47 6 15 -3 21 -3 15
0 -23 10 -13 19 24 22 20 1 42 7 48 12 7 5 15 6 20 2 4 -4 3 3 -4 15 -9 18 -8
21 7 18 26 -4 34 5 20 23 -10 12 -10 14 0 8 7 -4 12 -2 12 4 0 6 4 9 9 6 4 -3
7 6 5 19 -1 14 2 23 7 19 5 -3 6 -11 2 -17 -5 -8 -2 -8 9 1 8 6 14 23 12 37
-1 14 2 23 7 19 5 -3 9 0 9 6 0 6 4 8 10 5 6 -4 7 1 3 11 -5 12 -3 15 6 9 10
-6 11 -3 2 14 -9 17 -9 21 1 19 7 -2 14 7 16 19 2 12 12 39 23 60 12 24 17 29
13 13 -6 -24 -6 -24 9 -5 10 13 12 25 6 37 -6 11 -5 19 3 24 6 4 8 3 4 -4 -3
-6 -3 -13 2 -16 4 -2 7 21 7 52 0 31 4 60 10 64 6 5 5 8 -3 8 -7 0 -10 5 -7
10 4 6 12 8 18 4 7 -3 4 1 -6 9 -16 14 -16 15 5 21 15 5 18 9 10 13 -10 4 -10
8 -1 19 9 11 9 14 0 14 -8 0 -9 5 -1 19 7 14 6 21 -3 24 -9 4 -9 6 1 6 7 1 10
6 6 13 -10 16 -11 78 0 78 5 0 3 7 -4 15 -9 11 -9 15 -1 15 7 0 9 5 5 12 -12
18 -12 48 -1 55 5 3 3 9 -4 14 -11 7 -11 9 1 9 13 0 13 1 0 10 -12 8 -12 10
-1 10 11 0 11 3 1 15 -10 12 -10 15 1 15 9 1 5 8 -10 20 -13 11 -18 20 -12 20
6 0 11 9 11 20 0 11 -6 20 -12 20 -10 0 -10 2 0 9 10 6 8 10 -8 14 -12 3 -19
10 -16 15 3 6 2 22 -4 36 -7 19 -6 26 2 26 9 0 9 3 0 12 -8 8 -8 17 -1 31 8
14 8 18 0 13 -6 -4 -11 0 -11 9 0 10 -5 14 -12 9 -10 -5 -10 -4 -1 6 14 15 6
43 -11 33 -6 -3 -8 -3 -4 2 4 4 3 14 -4 22 -9 11 -7 12 8 7 17 -5 17 -4 3 8
-9 7 -14 18 -12 25 2 6 -1 15 -8 19 -8 4 -9 3 -5 -4 5 -8 1 -10 -10 -5 -15 6
-15 7 1 15 15 9 14 13 -12 41 -15 16 -22 27 -15 23 6 -4 12 -2 12 3 0 6 -10
11 -22 12 -13 0 -17 3 -10 6 10 4 8 9 -8 20 -18 12 -19 17 -8 31 11 13 11 14
-1 7 -11 -6 -13 -4 -8 8 4 12 2 14 -11 10 -15 -6 -15 -5 -3 10 12 15 12 17 -2
11 -8 -3 -25 0 -37 6 -15 8 -20 8 -16 1 4 -6 3 -11 -3 -11 -5 0 -13 5 -16 10
-4 6 -11 7 -17 4 -16 -10 -87 -11 -82 -2 3 5 1 8 -5 8 -10 0 -10 18 2 37 4 6
3 14 -3 18 -5 3 -10 11 -10 16 0 6 4 8 8 5 4 -2 8 4 8 14 0 10 -4 16 -8 14 -7
-4 -13 34 -9 58 0 4 -6 5 -14 2 -10 -4 -13 1 -11 23 2 15 -2 31 -8 35 -8 5 -7
8 2 8 8 0 5 8 -8 22 -11 12 -20 28 -20 35 0 7 -4 13 -10 13 -5 0 -10 8 -10 19
0 10 -7 24 -15 31 -9 7 -13 15 -11 18 3 2 -2 19 -11 36 -10 17 -17 33 -18 36
0 6 -22 63 -40 105 -7 17 -16 40 -20 53 -3 12 -11 22 -17 22 -5 0 -8 7 -4 15
3 8 -2 21 -10 30 -9 8 -13 15 -10 15 8 0 -46 103 -59 112 -7 5 -7 8 0 8 6 0 1
7 -10 16 -11 8 -18 17 -15 19 7 6 -43 85 -53 85 -4 0 -6 4 -3 9 3 4 -3 16 -14
26 -11 10 -17 22 -14 26 3 5 0 9 -5 9 -6 0 -11 7 -11 15 0 8 -4 15 -8 15 -10
0 -48 80 -45 92 2 5 -2 8 -8 8 -6 0 -9 9 -6 20 3 11 1 18 -4 14 -5 -3 -9 4 -9
15 0 12 -4 21 -8 21 -4 0 -8 10 -9 21 -1 12 -10 30 -19 40 -9 11 -14 19 -10
19 4 0 1 10 -6 23 -7 12 -11 25 -10 30 1 4 -3 7 -9 7 -6 0 -9 9 -6 20 3 11 0
18 -7 17 -6 -1 -10 6 -8 16 2 9 -3 17 -9 17 -7 0 -9 3 -6 7 4 3 0 15 -10 25
-9 10 -13 18 -9 18 3 0 -6 19 -21 43 -26 40 -34 51 -85 108 -13 15 -24 31 -25
38 -2 6 -17 24 -34 41 -18 16 -28 30 -23 30 5 0 4 4 -1 8 -6 4 -19 24 -30 45
-11 20 -23 37 -27 37 -5 0 -8 5 -8 10 0 15 -92 150 -102 150 -5 0 -6 5 -3 10
3 6 2 10 -2 10 -5 0 -32 22 -61 49 -33 30 -70 54 -97 62 -25 7 -45 17 -45 21
0 4 -3 7 -7 7 -22 -4 -43 3 -57 17 -9 8 -20 12 -26 9 -6 -3 -13 1 -16 9 -3 9
-10 13 -15 10 -5 -3 -9 0 -9 6 0 6 -4 9 -9 6 -5 -3 -11 1 -15 9 -3 8 -11 15
-19 15 -13 0 -137 112 -137 125 0 3 -7 13 -15 22 -8 8 -13 18 -11 22 7 11 -28
10 -35 -1 -3 -5 -9 -2 -12 7 -4 9 -3 13 3 10 6 -3 10 -1 10 4 0 6 -9 11 -21
11 -13 0 -18 4 -13 12 5 7 1 9 -13 6 -12 -3 -34 3 -50 13 -15 10 -23 19 -17
19 5 0 16 -6 24 -12 12 -11 12 -10 1 5 -7 9 -22 17 -32 17 -11 0 -19 5 -19 10
0 6 -5 10 -11 10 -5 0 -7 -5 -3 -12 4 -6 3 -8 -4 -4 -6 3 -9 15 -7 26 2 11 1
19 -3 18 -4 -1 -15 2 -25 7 -10 4 -24 2 -33 -6 -8 -7 -14 -8 -13 -3 4 23 -2
42 -17 48 -9 4 -13 2 -8 -5 4 -8 0 -7 -15 0 -11 7 -21 16 -21 20 0 5 -7 12
-16 15 -14 5 -15 4 -4 -9 11 -13 10 -14 -4 -9 -9 3 -16 12 -16 19 0 21 -29 26
-40 7 -8 -14 -9 -13 -7 8 1 19 -2 24 -17 22 -10 -2 -15 1 -11 7 3 7 0 8 -9 5
-9 -3 -16 -1 -16 4 0 6 -9 9 -20 7 -11 -2 -18 0 -15 6 4 5 -2 9 -12 9 -11 0
-24 5 -31 12 -7 7 -12 8 -12 3 0 -5 -7 0 -16 11 -8 10 -12 12 -8 5 4 -9 -6 -6
-24 8 -23 16 -30 18 -26 7 3 -9 1 -16 -5 -16 -6 0 -11 7 -11 16 0 12 -6 15
-21 11 -14 -4 -19 -2 -15 8 5 14 -11 15 -33 1 -10 -6 -12 -5 -7 2 5 8 0 12
-13 12 -12 0 -21 4 -21 8 0 4 -10 8 -22 9 -11 1 -25 8 -29 15 -4 7 -11 10 -14
6 -4 -3 -22 0 -40 8 -42 17 -48 17 -39 2 8 -13 -12 -3 -39 20 -16 15 -17 14
-12 -4 6 -17 5 -17 -7 -3 -7 9 -25 15 -40 15 -16 -1 -28 2 -28 7 0 5 -10 5
-21 2 -16 -5 -19 -4 -14 6 6 9 3 11 -8 6 -10 -4 -21 1 -27 11 -11 16 -11 16
-6 -1 4 -14 2 -16 -12 -9 -9 5 -25 8 -34 7 -10 -2 -18 1 -18 6 0 5 -7 9 -16 9
-9 0 -12 -5 -8 -12 4 -7 3 -8 -4 -4 -7 4 -12 14 -12 23 0 13 -3 13 -15 3 -13
-11 -19 -7 -17 11 1 4 -8 5 -18 2 -11 -3 -27 0 -35 7 -8 6 -19 9 -24 6 -5 -4
-13 -1 -17 5 -4 7 -3 9 4 5 6 -3 13 -2 16 3 7 10 -20 9 -30 -2 -11 -11 -26 -8
-19 4 5 7 -11 10 -49 8 -31 -1 -59 1 -63 6 -5 4 -2 5 6 0 9 -5 12 -4 7 3 -9
15 -38 3 -29 -12 3 -6 0 -5 -8 2 -11 11 -12 14 -1 21 8 5 -12 7 -47 5 -41 -1
-61 1 -61 9 0 8 -3 8 -8 2 -10 -14 -65 -16 -74 -2 -5 7 -8 8 -8 1 0 -14 -70
-15 -70 -1 0 8 -3 8 -8 2 -10 -14 -65 -16 -74 -2 -5 7 -8 8 -8 1 0 -14 -70
-15 -70 -1 0 8 -3 9 -8 1 -4 -5 -16 -10 -27 -11 -11 0 -29 -4 -40 -8 -18 -8
-18 -7 -6 8 21 26 8 20 -19 -8z m-730 -111 c0 -8 -19 -13 -24 -6 -3 5 1 9 9 9
8 0 15 -2 15 -3z m2545 -323 c3 -5 2 -12 -3 -15 -5 -3 -9 1 -9 9 0 17 3 19 12
6z m-4052 -466 c-3 -9 -8 -14 -10 -11 -3 3 -2 9 2 15 9 16 15 13 8 -4z m-89
-93 c3 -5 -1 -9 -9 -9 -8 0 -12 4 -9 9 3 4 7 8 9 8 2 0 6 -4 9 -8z m-82 -109
c-6 -2 -9 -10 -6 -15 4 -7 2 -8 -5 -4 -13 9 -5 26 12 25 9 0 8 -2 -1 -6z
m-496 -735 c4 -7 3 -8 -4 -4 -7 4 -12 2 -12 -5 0 -7 -3 -10 -6 -6 -6 5 3 27
11 27 2 0 7 -5 11 -12z m-56 -355 c8 -1 16 -7 18 -13 2 -5 8 -8 13 -4 5 3 9 1
9 -4 0 -6 -7 -13 -16 -16 -8 -3 -13 -2 -11 2 6 8 -19 33 -26 26 -2 -2 -10 3
-18 13 -12 15 -12 16 1 8 8 -5 22 -10 30 -12z m55 -64 c-4 -5 -14 -8 -23 -8
-15 1 -15 2 1 6 9 2 14 9 11 15 -4 7 -2 8 5 4 6 -4 9 -12 6 -17z m-5 -29 c0
-5 -5 -10 -11 -10 -5 0 -7 5 -4 10 3 6 8 10 11 10 2 0 4 -4 4 -10z m-39 -154
c5 3 9 0 9 -6 0 -15 -23 -7 -26 8 -1 7 0 8 3 2 2 -5 9 -8 14 -4z m-26 -86 c3
-5 1 -10 -4 -10 -6 0 -11 5 -11 10 0 6 2 10 4 10 3 0 8 -4 11 -10z m10 -29 c3
-5 2 -12 -3 -15 -5 -3 -9 1 -9 9 0 17 3 19 12 6z m-20 -91 c1 -16 -1 -17 -13
-8 -9 8 -10 14 -3 16 6 2 8 9 4 15 -3 7 -2 9 2 4 5 -4 9 -16 10 -27z m-28
-131 c-6 -10 -16 -19 -21 -19 -4 0 -3 7 4 15 6 8 9 19 5 24 -3 7 0 8 9 5 12
-5 13 -9 3 -25z m-13 -75 c3 -8 2 -12 -4 -9 -6 3 -10 10 -10 16 0 14 7 11 14
-7z m-7 -130 c-3 -3 -12 -4 -19 -1 -8 3 -5 6 6 6 11 1 17 -2 13 -5z m-6 -23
c5 8 9 9 9 3 0 -6 -6 -16 -13 -22 -10 -8 -13 -6 -14 11 0 12 1 16 4 8 5 -11 7
-11 14 0z m-25 -93 c-1 -7 -6 -20 -11 -28 -5 -8 -10 -17 -10 -20 0 -3 -6 -14
-12 -25 -11 -18 -12 -18 -13 -2 0 9 5 17 11 17 8 0 7 5 -1 16 -11 12 -11 15 0
12 8 -2 14 2 15 7 0 11 14 35 20 35 2 0 2 -6 1 -12z m6895 -15 c12 -16 12 -17
-2 -6 -9 7 -20 9 -24 5 -5 -4 -5 -1 -1 6 9 16 11 15 27 -5z m-6948 -76 c3 -8
-1 -14 -8 -14 -7 0 -11 6 -8 14 3 7 6 13 8 13 2 0 5 -6 8 -13z m-13 -57 c0 -5
-5 -10 -11 -10 -5 0 -7 5 -4 10 3 6 8 10 11 10 2 0 4 -4 4 -10z m0 -35 c0 -12
-19 -12 -23 0 -4 9 -1 12 9 8 7 -3 14 -7 14 -8z m-30 -131 c0 -8 -4 -14 -8
-14 -4 0 -8 9 -8 19 0 11 4 17 8 15 4 -3 8 -12 8 -20z m-6 -33 c3 -5 -1 -11
-9 -14 -9 -4 -12 -1 -8 9 6 16 10 17 17 5z m-16 -166 c-3 -3 -9 2 -12 12 -6
14 -5 15 5 6 7 -7 10 -15 7 -18z m-1 -104 c0 -11 -5 -18 -9 -15 -4 3 -5 11 -1
19 7 21 12 19 10 -4z m-13 -66 c-4 -8 -11 -15 -16 -15 -6 0 -5 6 2 15 7 8 14
15 16 15 2 0 1 -7 -2 -15z m-6 -50 c-3 -3 -9 2 -12 12 -6 14 -5 15 5 6 7 -7
10 -15 7 -18z m-23 -53 c-3 -3 -11 0 -18 7 -9 10 -8 11 6 5 10 -3 15 -9 12
-12z m-31 -13 c-3 -5 -10 -7 -15 -3 -5 3 -7 10 -3 15 3 5 10 7 15 3 5 -3 7
-10 3 -15z m6961 -479 c-3 -5 -12 -10 -18 -10 -7 0 -6 4 3 10 19 12 23 12 15
0z m-6782 -473 c3 -8 0 -14 -7 -14 -7 0 -13 6 -13 14 0 7 4 13 8 13 4 0 9 -6
12 -13z m371 -792 c3 -8 1 -15 -4 -15 -6 0 -10 7 -10 15 0 8 2 15 4 15 2 0 6
-7 10 -15z m4999 -509 c4 -9 -5 -21 -20 -31 -14 -10 -23 -12 -19 -7 3 6 0 13
-6 15 -8 4 -7 6 3 6 9 1 19 8 23 16 7 19 12 19 19 1z m-4456 -91 c0 -8 -4 -12
-9 -9 -5 3 -6 10 -3 15 9 13 12 11 12 -6z"/>
<path d="M6293 7405 c0 -8 4 -12 9 -9 5 3 6 10 3 15 -9 13 -12 11 -12 -6z"/>
<path d="M2170 6889 c0 -5 5 -7 10 -4 6 3 10 8 10 11 0 2 -4 4 -10 4 -5 0 -10
-5 -10 -11z"/>
<path d="M2111 6854 c0 -11 3 -14 6 -6 3 7 2 16 -1 19 -3 4 -6 -2 -5 -13z"/>
<path d="M1430 6199 c0 -5 5 -7 10 -4 6 3 10 8 10 11 0 2 -4 4 -10 4 -5 0 -10
-5 -10 -11z"/>
<path d="M1285 6012 c-10 -7 -18 -32 -10 -32 2 0 9 9 15 20 12 22 11 24 -5 12z"/>
<path d="M1140 5800 c-9 -6 -10 -10 -3 -10 6 0 15 5 18 10 8 12 4 12 -15 0z"/>
<path d="M70 4440 c0 -5 5 -10 10 -10 6 0 10 5 10 10 0 6 -4 10 -10 10 -5 0
-10 -4 -10 -10z"/>
<path d="M7746 4408 c3 -5 10 -6 15 -3 13 9 11 12 -6 12 -8 0 -12 -4 -9 -9z"/>
<path d="M7880 4061 c0 -6 4 -13 10 -16 6 -3 7 1 4 9 -7 18 -14 21 -14 7z"/>
<path d="M542 3586 c7 -8 15 -12 17 -11 5 6 -10 25 -20 25 -5 0 -4 -6 3 -14z"/>
<path d="M7845 3310 c-3 -6 1 -7 9 -4 18 7 21 14 7 14 -6 0 -13 -4 -16 -10z"/>
<path d="M6546 1521 c-3 -5 1 -11 9 -14 9 -4 12 -1 8 9 -6 16 -10 17 -17 5z"/>
<path d="M1445 1491 c-3 -5 -2 -12 3 -15 5 -3 9 1 9 9 0 17 -3 19 -12 6z"/>
</g>
</svg>
